<svg xmlns:xlink="http://www.w3.org/1999/xlink" xmlns="http://www.w3.org/2000/svg" width="76" height="76" viewBox="0 0 76 76" fill="none">
<rect width="76" height="76" rx="29.8571" fill="#9564F4" fill-opacity="0.12"></rect>
<path d="M43.4297 32.5713C46.7154 29.2856 51.5725 24.4284 51.5725 24.4284C51.5725 24.4284 46.7154 29.2856 43.4297 32.5713Z" stroke="#9564F4" stroke-width="2.71429" stroke-linecap="round" stroke-linejoin="round"></path>
<path d="M40.7148 35.2856L51.5719 24.4284C52.8291 23.1713 54.8291 23.1713 56.0862 24.4284C57.3434 25.6856 57.3434 27.6856 56.0862 28.9427L45.2291 39.7999" stroke="#9564F4" stroke-width="2.71429" stroke-linecap="round" stroke-linejoin="round"></path>
<path d="M40.7148 35.2856C38.0005 32.5713 33.1434 32.5713 30.4291 35.2856C27.7148 37.9999 27.7148 40.7141 24.4291 44.0006C27.7148 47.2856 32.5719 51.5713 37.4291 47.2856C40.1434 44.5713 40.1434 41.4284 40.7148 35.2856Z" stroke="#9564F4" stroke-width="2.71429" stroke-linecap="round" stroke-linejoin="round"></path>
</svg>