<svg xmlns:xlink="http://www.w3.org/1999/xlink" xmlns="http://www.w3.org/2000/svg" width="76" height="76" viewBox="0 0 76 76" fill="none">
<rect width="76" height="76" rx="29.8571" fill="#9564F4" fill-opacity="0.12"></rect>
<path d="M38 30.1427C38 28.7856 36.6857 26.7141 30.8571 26.7141C25.0286 26.7141 24.4286 28.1427 24.4286 29.4998V47.1427C24.4286 46.1427 25.4286 44.7856 30.8571 44.7856C34.5714 44.7856 37 46.1427 38 47.1427" stroke="#9564F4" stroke-width="2.71429" stroke-linecap="round" stroke-linejoin="round"></path>
<path d="M38 30.1427C38 28.7856 39.3143 26.7141 45.1429 26.7141C50.9714 26.7141 51.5714 28.1427 51.5714 29.4998V47.1427C51.5714 46.1427 50.5714 44.7856 45.1429 44.7856C41.4286 44.7856 39 46.1427 38 47.1427" stroke="#9564F4" stroke-width="2.71429" stroke-linecap="round" stroke-linejoin="round"></path>
<path d="M38 30.1427V47.1427" stroke="#9564F4" stroke-width="2.71429" stroke-linecap="round" stroke-linejoin="round"></path>
</svg>